<?xml version="1.0" encoding="UTF-8" standalone="no"?>
<!-- Created with Inkscape (http://www.inkscape.org/) -->

<svg
   width="800"
   height="800"
   viewBox="0 0 211.66666 211.66666"
   version="1.1"
   id="svg135"
   inkscape:version="1.1.2 (0a00cf5339, 2022-02-04)"
   sodipodi:docname="clustering-project.svg"
   inkscape:export-filename="/home/dusoudeth/Documentos/github/dszero-landing-page/src/assets/images/portfolio/clustering-project.png"
   inkscape:export-xdpi="96"
   inkscape:export-ydpi="96"
   xmlns:inkscape="http://www.inkscape.org/namespaces/inkscape"
   xmlns:sodipodi="http://sodipodi.sourceforge.net/DTD/sodipodi-0.dtd"
   xmlns:xlink="http://www.w3.org/1999/xlink"
   xmlns="http://www.w3.org/2000/svg"
   xmlns:svg="http://www.w3.org/2000/svg">
  <sodipodi:namedview
     id="namedview137"
     pagecolor="#ffffff"
     bordercolor="#000000"
     borderopacity="0.25"
     inkscape:showpageshadow="2"
     inkscape:pageopacity="0.0"
     inkscape:pagecheckerboard="0"
     inkscape:deskcolor="#d1d1d1"
     inkscape:document-units="mm"
     showgrid="false"
     inkscape:zoom="0.75722503"
     inkscape:cx="497.87049"
     inkscape:cy="247.61464"
     inkscape:window-width="1868"
     inkscape:window-height="1016"
     inkscape:window-x="52"
     inkscape:window-y="27"
     inkscape:window-maximized="1"
     inkscape:current-layer="layer2"
     inkscape:pageshadow="2"
     units="px"
     fit-margin-top="0"
     fit-margin-left="0"
     fit-margin-right="0"
     fit-margin-bottom="0"
     inkscape:snap-intersection-paths="true"
     inkscape:object-nodes="false"
     inkscape:snap-object-midpoints="false"
     inkscape:snap-page="false"
     inkscape:snap-center="false"
     inkscape:snap-bbox="true"
     inkscape:bbox-paths="true"
     inkscape:snap-bbox-edge-midpoints="true">
    <sodipodi:guide
       position="2.6478819e-14,210"
       orientation="0,793.70079"
       id="guide664"
       inkscape:locked="false" />
    <sodipodi:guide
       position="211.66666,211.66666"
       orientation="-1,0"
       id="guide666"
       inkscape:locked="false"
       inkscape:label=""
       inkscape:color="rgb(0,0,255)" />
    <sodipodi:guide
       position="211.66666,0"
       orientation="0,1"
       id="guide668"
       inkscape:locked="false"
       inkscape:label=""
       inkscape:color="rgb(0,0,255)" />
    <sodipodi:guide
       position="2.6478819e-14,0"
       orientation="-793.70079,0"
       id="guide670"
       inkscape:locked="false" />
  </sodipodi:namedview>
  <defs
     id="defs132">
    <linearGradient
       inkscape:collect="always"
       id="linearGradient2765">
      <stop
         style="stop-color:#00e0ff;stop-opacity:1"
         offset="0"
         id="stop2761" />
      <stop
         style="stop-color:#fe59ff;stop-opacity:1"
         offset="1"
         id="stop2763" />
    </linearGradient>
    <linearGradient
       inkscape:collect="always"
       xlink:href="#linearGradient2765"
       id="linearGradient2767"
       x1="216.59666"
       y1="12.839558"
       x2="31.38806"
       y2="197.41592"
       gradientUnits="userSpaceOnUse" />
  </defs>
  <g
     inkscape:label="Camada 1"
     inkscape:groupmode="layer"
     id="layer1"
     style="fill:#000000"
     sodipodi:insensitive="true">
    <rect
       style="fill:#000000;fill-opacity:1;stroke-width:0.265574"
       id="rect662"
       width="211.66667"
       height="211.66667"
       x="-2.6478819e-14"
       y="-4.8319498e-06"
       ry="0"
       inkscape:label="background" />
  </g>
  <g
     inkscape:groupmode="layer"
     id="layer2"
     inkscape:label="Camada 2"
     style="fill:#000000"
     transform="translate(-18.159027,0.70559687)">
    <path
       style="fill:url(#linearGradient2767);stroke-width:0.361825;fill-opacity:1"
       d="m 47.043027,196.54429 -1.015186,-0.87249 -0.112411,-6.90677 -0.112411,-6.90677 H 39.81865 33.834267 l -1.230204,-1.23021 c -1.353773,-1.35376 -1.554827,-2.5199 -0.714603,-4.1447 0.839035,-1.62252 1.89027,-1.86161 8.185232,-1.86161 h 5.772184 V 102.768 30.914256 L 43.64429,32.7547 c -1.833121,1.53172 -2.442821,1.840445 -3.634706,1.840445 -2.310334,0 -3.996581,-2.231874 -3.420468,-4.527264 0.280125,-1.116132 10.768006,-10.166098 12.069717,-10.414935 1.601324,-0.306112 2.541078,0.239334 7.354034,4.268337 5.429657,4.545262 6.478007,5.6652 6.478007,6.92042 0,1.180098 -0.917873,2.91463 -1.789086,3.38089 -1.606316,0.859673 -3.121813,0.448918 -5.415791,-1.467893 l -2.2026,-1.840444 v 36.827347 36.827347 l 2.077416,-3.05577 c 1.142586,-1.680674 3.707034,-4.685134 5.69876,-6.676574 7.091919,-7.09087 15.640926,-11.77169 25.552896,-13.99091 3.19309,-0.71492 4.7644,-0.84141 10.45185,-0.84141 7.394911,0 11.376451,0.63775 17.160791,2.74878 1.58299,0.57771 2.9163,1.05039 2.96292,1.05039 0.0466,0 -0.30771,-1.00149 -0.78741,-2.22554 -1.43338,-3.65754 -2.67392,-9.269268 -3.02738,-13.694795 -1.49447,-18.710802 7.26206,-36.591639 22.94919,-46.862256 8.51887,-5.577444 17.483,-8.189689 28.07475,-8.181287 13.26031,0.01053 25.22066,4.834027 35.25011,14.216093 5.86401,5.485496 12.83947,17.122285 12.83947,21.419411 0,1.993905 -1.33719,3.306789 -3.36802,3.306789 -2.03949,0 -2.83025,-0.6846 -3.89881,-3.375413 -5.08174,-12.796766 -14.51544,-21.908849 -27.09098,-26.167388 -13.0671,-4.425003 -27.44,-2.38001 -38.99584,5.548373 -12.61705,8.656487 -20.1827,24.905951 -18.57001,39.884581 1.13703,10.560712 5.38987,19.661882 12.54438,26.845242 6.3701,6.395784 14.32939,10.605744 23.28073,12.314034 4.14126,0.79032 11.54974,0.786 15.67357,-0.01 14.57295,-2.80993 27.01531,-12.849414 32.45811,-26.189794 1.34558,-3.29804 2.41981,-4.42724 4.21172,-4.42724 1.64864,0 2.53403,0.49721 3.20872,1.80189 0.76383,1.47709 0.69965,1.95507 -0.72795,5.42126 -4.52581,10.98854 -13.41294,20.447414 -24.33386,25.899354 -7.1495,3.56917 -14.35721,5.23196 -22.66876,5.22958 -6.24255,-10e-4 -10.6867,-0.6874 -16.04913,-2.47595 -3.14002,-1.04731 -4.03037,-1.23171 -3.85769,-0.79893 0.91005,2.28087 2.41227,7.4106 2.94409,10.05338 0.89862,4.46559 0.90023,14.65288 0.003,18.91259 -1.53063,7.26676 -4.57463,14.34384 -8.63047,20.06526 -2.92698,4.12897 -7.94542,9.15097 -12.03825,12.04677 l -3.19621,2.26142 h 40.96279 40.96278 l -0.77104,-0.99502 c -3.21192,-4.14493 -3.38748,-4.62575 -2.39198,-6.55085 0.92547,-1.78963 3.23713,-2.35936 4.97652,-1.2265 1.39325,0.90741 9.29977,10.46519 9.57966,11.58035 0.38016,1.51467 -0.26593,2.601 -4.61736,7.76359 -4.32164,5.12738 -5.41393,6.07241 -7.01852,6.07241 -1.30511,0 -3.4358,-2.12035 -3.4358,-3.41912 0,-1.10286 0.77153,-2.74458 1.62125,-3.44978 0.32092,-0.26634 0.91262,-0.94647 1.31489,-1.51141 l 0.7314,-1.02715 H 129.11328 53.127144 l -0.112411,6.90677 -0.112411,6.90677 -1.0152,0.87248 c -0.696346,0.59846 -1.457077,0.87249 -2.422143,0.87249 -0.965066,0 -1.725796,-0.27403 -2.422157,-0.87249 z M 69.942754,174.14818 C 64.175179,170.5415 57.163685,163.53 53.557,157.76243 c -0.34087,-0.54511 -0.435449,1.14558 -0.452283,8.08504 l -0.02133,8.77427 8.774283,-0.0213 c 6.939466,-0.0168 8.630144,-0.11145 8.085033,-0.45228 z m 35.605436,-0.4065 c 11.99826,-2.57461 22.01075,-9.55243 28.50501,-19.86546 6.76805,-10.74782 8.41966,-24.54885 4.40724,-36.82733 -4.21366,-12.8943 -14.75384,-23.450854 -27.76777,-27.810924 -10.55558,-3.53645 -23.385451,-2.68587 -33.064881,2.19209 -14.530716,7.32276 -23.729207,21.420764 -24.41583,37.420724 -0.414745,9.66453 2.16182,18.77782 7.553911,26.71802 1.949826,2.87125 7.030325,8.1366 10.042189,10.40756 4.79512,3.61558 12.53626,6.95269 18.27705,7.87905 1.39303,0.22479 2.93984,0.47784 3.43735,0.56232 1.90244,0.3231 10.432751,-0.11965 13.025731,-0.67605 z m -16.310001,-13.56514 -1.05765,-1.05765 v -12.35773 -12.35774 l 1.05765,-1.05765 1.05765,-1.05765 H 102.2469 c 8.16633,0 12.23739,0.13046 12.85521,0.41197 1.94764,0.8874 2.06262,1.75064 1.94831,14.62815 l -0.10475,11.79517 -1.18165,1.05539 -1.18164,1.05539 H 102.43909 90.295799 Z M 109.8901,146.76116 v -7.23652 h -7.23651 -7.236521 v 7.23652 7.23651 h 7.236521 7.23651 z M 78.865409,123.19999 c -2.26495,-0.65409 -2.43108,-1.33489 -2.55877,-10.48609 -0.13156,-9.43067 0.0881,-10.84445 1.85162,-11.91977 1.062,-0.64754 1.86838,-0.70592 9.76889,-0.70715 12.458071,-10e-4 11.83209,-0.618344 11.83127,11.64956 -7.3e-4,9.6405 -0.21494,10.60483 -2.53222,11.39506 -1.5336,0.52298 -16.59242,0.57907 -18.36079,0.0684 z m 13.65705,-11.36617 v -4.53395 l -4.43237,0.10161 -4.43237,0.10161 -0.10338,3.95682 c -0.0569,2.17627 -0.0213,4.17082 0.079,4.43236 0.13675,0.35638 1.27337,0.47555 4.53574,0.47555 h 4.35327 z M 145.53957,89.876806 c -5.94694,-0.76576 -10.8974,-5.71542 -11.68352,-11.68165 -0.84093,-6.382086 2.1813,-12.058897 7.87472,-14.791526 2.15092,-1.032365 2.66174,-1.128809 5.97868,-1.128809 3.35876,0 3.80278,0.08667 6.00811,1.172778 2.86808,1.412503 5.40933,4.001251 6.76301,6.8894 0.84915,1.81173 0.96972,2.518774 0.96972,5.687207 0,3.30736 -0.097,3.82034 -1.12882,5.97012 -2.72597,5.67953 -8.39852,8.70444 -14.7819,7.88248 z m 5.23685,-7.71205 c 1.24254,-0.64238 2.77048,-2.31561 3.2334,-3.54087 0.59684,-1.57961 0.46051,-4.279055 -0.28642,-5.671784 -2.03991,-3.803619 -7.25214,-4.858449 -10.39063,-2.102817 -1.72144,1.511442 -2.42321,2.989316 -2.45285,5.165531 -0.0691,5.07157 5.40386,8.47259 9.8965,6.14994 z m 27.06374,-0.84821 c -4.47243,-1.47517 -7.80257,-4.41113 -9.81008,-8.648883 -1.07805,-2.275707 -1.15241,-2.689488 -1.15241,-6.412759 0,-3.727522 0.0736,-4.13526 1.15837,-6.425495 5.18512,-10.946204 19.69395,-12.545891 26.96752,-2.973329 2.22937,2.934032 2.94179,5.198023 2.95751,9.398824 0.0109,2.917055 -0.14178,4.003922 -0.78795,5.608301 -1.62043,4.023391 -5.16915,7.561351 -9.12864,9.100951 -2.81665,1.09523 -7.46546,1.25577 -10.20432,0.35239 z m 8.03336,-7.31279 c 2.18823,-0.992051 3.18869,-1.974723 4.20535,-4.130594 1.07168,-2.272554 1.11033,-4.840646 0.10612,-7.055602 -0.99206,-2.188233 -1.97473,-3.188692 -4.1306,-4.20535 -5.69863,-2.68735 -12.12116,1.328972 -12.12116,7.579962 0,6.228342 6.31687,10.360984 11.94025,7.811584 z m 23.04364,-7.859108 c -2.19965,-2.29594 -0.70041,-5.85987 2.46508,-5.85987 2.10248,0 3.43736,1.311206 3.43736,3.376429 0,2.08526 -1.3884,3.498263 -3.43736,3.498263 -1.16328,0 -1.70745,-0.224025 -2.46508,-1.014822 z M 151.76582,55.208532 c -7.32499,-1.839584 -11.14735,-10.031906 -7.85444,-16.834132 1.06562,-2.201305 4.25492,-5.022534 6.53325,-5.779274 4.19158,-1.39222 9.09683,-0.348588 12.10556,2.575558 4.77316,4.638983 4.84724,12.111338 0.16648,16.7921 -2.73923,2.739225 -7.43079,4.129768 -10.95085,3.245748 z m 4.77751,-7.525158 c 1.37015,-0.734826 2.55508,-2.624098 2.55508,-4.073887 0,-1.357893 -1.41977,-3.299104 -2.96861,-4.058897 -3.5404,-1.73676 -7.56338,2.281882 -5.82735,5.821067 0.76155,1.552574 2.70167,2.972869 4.06092,2.972869 0.52094,0 1.50192,-0.297518 2.17996,-0.661152 z"
       id="path2613" />
  </g>
</svg>
