<?xml version="1.0" encoding="UTF-8" standalone="no"?>
<!-- Created with Inkscape (http://www.inkscape.org/) -->

<svg
   width="800"
   height="800"
   viewBox="0 0 211.66666 211.66666"
   version="1.1"
   id="svg135"
   inkscape:version="1.1.2 (0a00cf5339, 2022-02-04)"
   sodipodi:docname="clustering-project.svg"
   inkscape:export-filename="/home/dusoudeth/Documentos/github/dszero-landing-page/src/assets/images/portfolio/clustering-project.png"
   inkscape:export-xdpi="96"
   inkscape:export-ydpi="96"
   xmlns:inkscape="http://www.inkscape.org/namespaces/inkscape"
   xmlns:sodipodi="http://sodipodi.sourceforge.net/DTD/sodipodi-0.dtd"
   xmlns:xlink="http://www.w3.org/1999/xlink"
   xmlns="http://www.w3.org/2000/svg"
   xmlns:svg="http://www.w3.org/2000/svg">
  <sodipodi:namedview
     id="namedview137"
     pagecolor="#ffffff"
     bordercolor="#000000"
     borderopacity="0.25"
     inkscape:showpageshadow="2"
     inkscape:pageopacity="0.0"
     inkscape:pagecheckerboard="0"
     inkscape:deskcolor="#d1d1d1"
     inkscape:document-units="mm"
     showgrid="false"
     inkscape:zoom="0.75722503"
     inkscape:cx="497.87049"
     inkscape:cy="247.61464"
     inkscape:window-width="1502"
     inkscape:window-height="752"
     inkscape:window-x="251"
     inkscape:window-y="283"
     inkscape:window-maximized="0"
     inkscape:current-layer="layer1"
     inkscape:pageshadow="2"
     units="px"
     fit-margin-top="0"
     fit-margin-left="0"
     fit-margin-right="0"
     fit-margin-bottom="0"
     inkscape:snap-intersection-paths="true"
     inkscape:object-nodes="false"
     inkscape:snap-object-midpoints="false"
     inkscape:snap-page="false"
     inkscape:snap-center="false"
     inkscape:snap-bbox="true"
     inkscape:bbox-paths="true"
     inkscape:snap-bbox-edge-midpoints="true">
    <sodipodi:guide
       position="2.6478819e-14,210"
       orientation="0,793.70079"
       id="guide664"
       inkscape:locked="false" />
    <sodipodi:guide
       position="211.66666,211.66666"
       orientation="-1,0"
       id="guide666"
       inkscape:locked="false"
       inkscape:label=""
       inkscape:color="rgb(0,0,255)" />
    <sodipodi:guide
       position="211.66666,0"
       orientation="0,1"
       id="guide668"
       inkscape:locked="false"
       inkscape:label=""
       inkscape:color="rgb(0,0,255)" />
    <sodipodi:guide
       position="2.6478819e-14,0"
       orientation="-793.70079,0"
       id="guide670"
       inkscape:locked="false" />
  </sodipodi:namedview>
  <defs
     id="defs132">
    <linearGradient
       inkscape:collect="always"
       id="linearGradient1654">
      <stop
         style="stop-color:#00e0ff;stop-opacity:1"
         offset="0"
         id="stop1650" />
      <stop
         style="stop-color:#fe59ff;stop-opacity:1"
         offset="1"
         id="stop1652" />
    </linearGradient>
    <linearGradient
       inkscape:collect="always"
       xlink:href="#linearGradient1654"
       id="linearGradient1656"
       x1="33.085918"
       y1="105.69827"
       x2="216.56564"
       y2="105.12774"
       gradientUnits="userSpaceOnUse" />
  </defs>
  <g
     inkscape:label="Camada 1"
     inkscape:groupmode="layer"
     id="layer1"
     style="fill:#000000">
    <rect
       style="fill:#000000;fill-opacity:1;stroke-width:0.265574"
       id="rect662"
       width="211.66667"
       height="211.66667"
       x="-2.6478819e-14"
       y="-4.8319498e-06"
       ry="0"
       inkscape:label="background" />
  </g>
  <g
     inkscape:groupmode="layer"
     id="layer2"
     inkscape:label="Camada 2"
     style="fill:#000000"
     transform="translate(-18.159027,0.70559687)"
     sodipodi:insensitive="true">
    <path
       style="fill:url(#linearGradient1656);fill-opacity:1;stroke-width:0.361735"
       d="m 48.225559,194.1221 c -0.39791,-0.16286 -1.04903,-0.65754 -1.44694,-1.09928 -0.6601,-0.73282 -0.73332,-1.40202 -0.83583,-7.63913 l -0.11236,-6.83596 h -5.74881 c -6.27023,0 -7.32298,-0.24008 -8.16127,-1.86114 -0.84001,-1.6244 -0.639,-2.79024 0.71443,-4.14367 l 1.2299,-1.22989 h 6.0048 6.0048 V 99.297361 27.281692 l -1.47348,1.206035 c -3.19735,2.617011 -4.18061,2.933932 -6.07049,1.956634 -1.09932,-0.568479 -1.86114,-1.924906 -1.86114,-3.313772 0,-1.144234 1.51137,-2.721645 7.05383,-7.362072 4.52305,-3.78692 5.89736,-4.45234 7.46394,-3.613932 1.41848,0.759148 10.218,8.287145 10.89221,9.318295 1.48024,2.263908 0.23053,5.008866 -2.44037,5.360229 -1.49904,0.197203 -1.4801,0.207075 -5.33503,-2.780116 l -0.99477,-0.77085 v 69.302428 c 0,38.116339 0.12276,69.302429 0.27279,69.302429 0.15004,0 7.65736,-7.38591 16.68295,-16.41313 l 16.41015,-16.41312 -0.77627,-2.07476 c -2.09431,-5.59755 -0.90079,-11.17519 3.27616,-15.31042 3.6692,-3.63255 8.97259,-4.8935 14.069801,-3.34527 l 2.63779,0.80121 38.95091,-38.949658 c 37.03475,-37.033557 39.01585,-38.951494 40.27118,-38.987078 2.56298,-0.07265 4.46341,2.466719 3.53089,4.718012 -0.23211,0.560377 -17.80528,18.401552 -39.05148,39.647057 l -38.62946,38.628187 0.93,1.87409 c 0.82081,1.65403 0.93,2.32004 0.93,5.67229 0,3.4023 -0.10264,4.00701 -0.98464,5.80125 -1.95643,3.97991 -5.0269,6.58252 -9.19557,7.79439 -2.639411,0.76729 -6.596421,0.52366 -9.038301,-0.5565 l -1.73418,-0.76711 -16.65329,16.65329 -16.65329,16.6533 h 73.365911 73.36592 l -0.73122,-1.0269 c -0.40216,-0.5648 -0.99372,-1.24476 -1.31455,-1.51103 -0.78987,-0.65553 -1.62084,-2.32167 -1.62084,-3.24983 0,-2.63189 3.03356,-4.43824 5.29403,-3.15237 1.09825,0.62475 9.52054,10.73774 9.76985,11.73107 0.11408,0.45452 0.10747,1.22462 -0.0147,1.71132 -0.2711,1.08015 -8.19749,10.62319 -9.55399,11.50261 -2.38722,1.54762 -5.49521,-0.20061 -5.49521,-3.09104 0,-0.82121 1.67851,-3.52375 2.5063,-4.03536 0.21103,-0.13042 0.55307,-0.55362 0.76009,-0.94045 0.37226,-0.69557 -0.46112,-0.70332 -75.60067,-0.70332 H 53.108979 v 6.52919 c 0,7.11815 -0.22981,8.1578 -1.97943,8.95499 -1.07949,0.49184 -1.86318,0.51618 -2.90399,0.0902 z m 53.644461,-62.29032 c 4.5415,-2.1985 5.01118,-8.95816 0.81538,-11.73481 -2.63722,-1.74522 -6.022461,-1.61488 -8.222281,0.31659 -2.49113,2.18724 -3.24345,5.26341 -1.9648,8.03387 1.72206,3.73119 5.69298,5.16519 9.371701,3.38435 z m 31.90587,30.68679 c -4.04143,-1.16826 -6.99418,-3.58161 -8.61613,-7.04218 -0.85064,-1.81491 -0.96937,-2.51386 -0.96596,-5.6866 0.004,-3.25706 0.10479,-3.80965 1.01691,-5.54811 2.0368,-3.88207 5.36256,-6.27222 9.78042,-7.02896 6.1849,-1.05943 12.87034,3.37877 14.34421,9.52255 0.58866,2.4538 0.29254,6.25699 -0.65374,8.39622 -1.1088,2.50662 -4.02653,5.41791 -6.57702,6.5625 -2.57354,1.15493 -6.00918,1.49508 -8.32869,0.82458 z m 6.10038,-7.74841 c 3.4424,-2.54926 3.45075,-7.04385 0.0178,-9.58572 -2.31214,-1.71198 -6.12736,-0.88798 -7.88019,1.70194 -0.7286,1.07656 -0.83401,1.59462 -0.70037,3.44222 0.12929,1.78735 0.3466,2.37612 1.21942,3.30383 0.58415,0.62089 1.55044,1.35574 2.1473,1.63299 1.4076,0.65386 3.97476,0.40917 5.19605,-0.49526 z m 7.22745,-30.24197 c -5.76039,-2.15083 -8.98701,-6.58805 -8.98701,-12.35884 0,-3.90648 0.99477,-6.30324 3.76656,-9.07503 2.9942,-2.9942 5.33399,-3.892469 9.61763,-3.692269 2.63817,0.1233 3.39671,0.31565 5.34223,1.354709 2.7048,1.44458 4.5273,3.3614 5.82266,6.12402 0.80863,1.72454 0.95324,2.52685 0.95324,5.28857 0,2.77236 -0.14338,3.56149 -0.9659,5.31624 -1.23861,2.64243 -3.7632,5.15846 -6.37859,6.35699 -2.4879,1.1401 -7.0418,1.48055 -9.17082,0.68561 z m 6.36464,-7.30831 c 1.74636,-0.82871 2.8457,-2.53862 3.00519,-4.6743 0.25899,-3.46797 -2.05948,-5.98312 -5.51525,-5.98312 -5.72999,0 -7.86557,7.18183 -3.09213,10.39865 1.44169,0.97155 3.86429,1.08345 5.60219,0.25877 z m 36.47625,-0.5574 c -6.38851,-0.81514 -12.28713,-6.18558 -14.07318,-12.81304 -1.84253,-6.836999 1.29824,-14.673982 7.46726,-18.632629 5.35096,-3.433698 13.08956,-3.432262 18.44361,0.0033 5.58539,3.584136 8.70452,10.4761 7.69447,17.001569 -1.45099,9.37419 -9.9564,15.66248 -19.53216,14.44067 z m 7.03516,-8.14677 c 7.41275,-3.57791 7.32849,-14.079389 -0.1423,-17.734507 -4.79118,-2.344104 -10.24837,-0.589939 -13.08399,4.205728 -0.84002,1.42067 -0.9621,2.01907 -0.95937,4.70256 0.002,2.245759 0.17478,3.390399 0.6398,4.245499 2.84543,5.23236 8.34366,7.09166 13.54586,4.58072 z M 82.406779,91.386129 c -4.58397,-0.608095 -8.36419,-2.514301 -11.78985,-5.945111 -7.93982,-7.951757 -7.92591,-20.309617 0.0318,-28.256266 6.27718,-6.268455 15.44538,-7.783127 23.24837,-3.840844 2.74947,1.389105 3.50798,2.273132 3.50798,4.088495 0,1.184342 -0.21827,1.650087 -1.17313,2.503254 -1.50162,1.341696 -2.45822,1.319262 -5.43489,-0.127454 -2.21085,-1.074516 -2.71498,-1.175639 -5.86089,-1.175639 -3.16081,0 -3.63974,0.09727 -5.86301,1.190832 -2.76254,1.358803 -4.61401,3.272157 -6.0234,6.224736 -0.81961,1.717015 -0.94939,2.460272 -0.94746,5.426025 0.002,3.15692 0.0959,3.61611 1.15419,5.644521 3.40426,6.525197 11.17407,9.063958 17.59675,5.74968 2.392,-1.234337 3.98816,-1.188372 5.33003,0.153495 2.04214,2.042139 1.14992,4.661549 -2.15894,6.338274 -3.44464,1.745534 -7.88909,2.520606 -11.61756,2.026002 z M 100.27493,74.736982 c -2.354451,-0.951305 -3.022331,-4.0539 -1.253431,-5.822795 1.948861,-1.948861 5.064821,-1.173714 5.852691,1.455959 0.53132,1.773391 -0.2951,3.478588 -2.03905,4.207256 -1.38933,0.580498 -1.5012,0.587469 -2.56021,0.15958 z m 24.72741,-10.144074 c -3.81193,-0.962143 -7.14325,-3.755178 -8.83485,-7.407284 -0.84746,-1.829649 -1.00652,-2.65435 -1.01312,-5.252765 -0.007,-2.760957 0.1159,-3.333698 1.17886,-5.49288 3.53078,-7.172023 12.17067,-9.541545 18.79755,-5.155299 8.1946,5.423889 7.36039,17.878737 -1.48929,22.23542 -2.50039,1.230941 -6.19496,1.689733 -8.63915,1.072808 z m 6.37473,-8.069965 c 1.51338,-1.154318 2.59261,-3.703967 2.26377,-5.34814 -0.54342,-2.717087 -3.12816,-5.006208 -5.65271,-5.006208 -1.42828,0 -3.79707,1.244608 -4.65087,2.443661 -2.1003,2.949607 -0.99152,7.142055 2.28165,8.627183 1.64733,0.747435 4.26605,0.421584 5.75816,-0.716496 z"
       id="path1520" />
  </g>
</svg>
