<?xml version="1.0" encoding="UTF-8" standalone="no"?>
<!-- Created with Inkscape (http://www.inkscape.org/) -->

<svg
   width="800"
   height="800"
   viewBox="0 0 211.66666 211.66666"
   version="1.1"
   id="svg135"
   inkscape:version="1.1.2 (0a00cf5339, 2022-02-04)"
   sodipodi:docname="webdev-project.svg"
   inkscape:export-filename="/home/dusoudeth/Documentos/github/dszero-landing-page/src/assets/images/portfolio/webdev-project.png"
   inkscape:export-xdpi="96"
   inkscape:export-ydpi="96"
   xmlns:inkscape="http://www.inkscape.org/namespaces/inkscape"
   xmlns:sodipodi="http://sodipodi.sourceforge.net/DTD/sodipodi-0.dtd"
   xmlns:xlink="http://www.w3.org/1999/xlink"
   xmlns="http://www.w3.org/2000/svg"
   xmlns:svg="http://www.w3.org/2000/svg">
  <sodipodi:namedview
     id="namedview137"
     pagecolor="#ffffff"
     bordercolor="#000000"
     borderopacity="0.25"
     inkscape:showpageshadow="2"
     inkscape:pageopacity="0.0"
     inkscape:pagecheckerboard="0"
     inkscape:deskcolor="#d1d1d1"
     inkscape:document-units="mm"
     showgrid="false"
     inkscape:zoom="0.75722503"
     inkscape:cx="497.87049"
     inkscape:cy="353.26355"
     inkscape:window-width="1868"
     inkscape:window-height="1016"
     inkscape:window-x="52"
     inkscape:window-y="27"
     inkscape:window-maximized="1"
     inkscape:current-layer="layer2"
     inkscape:pageshadow="2"
     units="px"
     fit-margin-top="0"
     fit-margin-left="0"
     fit-margin-right="0"
     fit-margin-bottom="0"
     inkscape:snap-intersection-paths="true"
     inkscape:object-nodes="false"
     inkscape:snap-object-midpoints="false"
     inkscape:snap-page="false"
     inkscape:snap-center="false"
     inkscape:snap-bbox="false"
     inkscape:bbox-paths="true"
     inkscape:snap-bbox-edge-midpoints="true"
     inkscape:snap-midpoints="false"
     inkscape:object-paths="true">
    <sodipodi:guide
       position="2.6478819e-14,210"
       orientation="0,793.70079"
       id="guide664"
       inkscape:locked="false" />
    <sodipodi:guide
       position="211.66666,211.66666"
       orientation="-1,0"
       id="guide666"
       inkscape:locked="false"
       inkscape:label=""
       inkscape:color="rgb(0,0,255)" />
    <sodipodi:guide
       position="211.66666,0"
       orientation="0,1"
       id="guide668"
       inkscape:locked="false"
       inkscape:label=""
       inkscape:color="rgb(0,0,255)" />
    <sodipodi:guide
       position="2.6478819e-14,0"
       orientation="-793.70079,0"
       id="guide670"
       inkscape:locked="false" />
  </sodipodi:namedview>
  <defs
     id="defs132">
    <linearGradient
       inkscape:collect="always"
       id="linearGradient1279">
      <stop
         style="stop-color:#fe59ff;stop-opacity:1"
         offset="0"
         id="stop1275" />
      <stop
         style="stop-color:#00e0ff;stop-opacity:1"
         offset="1"
         id="stop1277" />
    </linearGradient>
    <linearGradient
       inkscape:collect="always"
       xlink:href="#linearGradient1279"
       id="linearGradient1281"
       x1="31.418785"
       y1="163.60289"
       x2="216.5966"
       y2="50.5653"
       gradientUnits="userSpaceOnUse"
       gradientTransform="matrix(0.71428509,0,0,0.71428509,35.426466,30.036609)" />
  </defs>
  <g
     inkscape:label="Camada 1"
     inkscape:groupmode="layer"
     id="layer1"
     style="display:inline;fill:#000000"
     sodipodi:insensitive="true">
    <rect
       style="fill:#000000;fill-opacity:1;stroke-width:0.265574"
       id="rect662"
       width="211.66667"
       height="211.66667"
       x="-2.6478819e-14"
       y="-4.8319498e-06"
       ry="0"
       inkscape:label="background" />
  </g>
  <g
     inkscape:groupmode="layer"
     id="layer2"
     inkscape:label="Camada 2"
     style="fill:#000000"
     transform="translate(-18.159027,0.70559687)">
    <path
       style="fill:url(#linearGradient1281);fill-opacity:1;stroke-width:0.258426"
       d="m 60.573871,170.07802 c -0.963071,-0.42988 -2.075434,-1.59663 -2.438598,-2.55783 -0.384607,-1.01794 -0.385185,-67.30007 -5.93e-4,-68.320153 0.407907,-1.081963 1.776299,-2.378112 2.815369,-2.666776 0.503778,-0.139957 1.759077,-0.255114 2.789555,-0.255907 l 1.873591,-7.14e-4 0.005,-23.71063 c 0.0028,-13.040853 0.110957,-24.44195 0.240207,-25.335787 0.440164,-3.043789 2.159334,-5.475149 4.793903,-6.779868 l 1.292142,-0.639899 h 55.949323 55.94933 l 1.17605,0.544157 c 2.36767,1.095524 4.0138,3.026339 4.75561,5.578046 0.36499,1.255534 0.40059,5.604884 0.33918,41.443552 l -0.0686,40.040819 -0.69288,1.47829 c -0.90747,1.93616 -2.68264,3.64326 -4.49284,4.32054 -1.38088,0.51665 -1.89962,0.53261 -17.30708,0.53261 -8.73594,0 -15.87625,0.0872 -15.86732,0.19382 0.009,0.1066 0.32872,1.06601 0.71067,2.13202 l 0.69446,1.9382 2.85375,0.13729 c 2.42643,0.11674 3.07324,0.24468 4.31946,0.85441 0.82024,0.40131 1.91882,1.23187 2.49465,1.88604 1.53789,1.74714 1.94728,3.22804 1.95491,7.07167 0.007,3.60944 -0.25963,4.41112 -1.77298,5.32733 -0.77315,0.46808 -1.88177,0.49 -28.13346,0.55649 l -27.32859,0.0692 -0.003,6.64987 c -0.003,6.40259 -0.0258,6.6876 -0.58146,7.6642 -0.35984,0.63233 -1.00612,1.24058 -1.71616,1.61517 l -1.13899,0.60084 -21.344133,-0.0101 c -17.257372,-0.007 -21.492612,-0.0763 -22.119448,-0.35611 z m 42.974729,-5.51292 0.0759,-1.87359 H 82.680666 61.736799 v 1.76591 c 0,0.97126 0.07823,1.84413 0.173806,1.93973 0.09562,0.0956 9.486171,0.14405 20.867946,0.10768 l 20.694129,-0.0662 z m 0.0534,-31.20499 V 107.9051 h -8.636153 c -4.74989,0 -8.824407,-0.0723 -9.054493,-0.16053 -0.230078,-0.0883 -0.597627,-0.50725 -0.816771,-0.93103 -0.327821,-0.63393 -0.342742,-0.90496 -0.08419,-1.52911 0.172828,-0.41724 0.523221,-0.87048 0.778656,-1.00718 0.270879,-0.14496 4.083896,-0.24855 9.15002,-0.24855 h 8.685581 l -0.0759,-1.87359 -0.076,-1.87358 H 82.669401 61.866069 l -0.07599,1.87358 -0.07589,1.87359 h 8.375335 c 8.081786,0 8.399193,0.0187 9.056243,0.53562 0.879649,0.69193 0.935313,2.04994 0.115342,2.81386 -0.545371,0.50808 -0.868791,0.52692 -9.044935,0.52692 H 61.73683 v 25.45501 25.455 h 20.932546 20.932534 z m -24.531903,15.23346 c -3.856367,-0.8363 -7.39325,-3.22652 -9.55332,-6.45608 -1.614327,-2.41362 -2.365612,-4.70895 -2.534576,-7.74368 -0.251164,-4.51092 1.11977,-8.0266 4.445696,-11.40072 3.136926,-3.18239 6.326423,-4.52942 10.724698,-4.52942 2.673391,0 4.205967,0.34314 6.58988,1.47551 5.325024,2.52939 8.657285,7.80569 8.657285,13.70797 0,2.50914 -0.386743,4.2432 -1.442706,6.46876 -1.145384,2.41404 -2.607655,4.23228 -4.581088,5.69626 -2.025063,1.50229 -3.734169,2.26693 -6.210031,2.77834 -2.345277,0.48443 -3.872654,0.4852 -6.095838,0.002 z m 7.020716,-4.24289 c 3.360469,-1.26734 5.938324,-3.96723 6.941558,-7.27016 0.812656,-2.67548 0.633256,-5.68175 -0.481185,-8.06324 -4.208854,-8.99413 -16.555057,-8.97494 -20.82234,0.0323 -0.763927,1.61248 -0.817799,1.91343 -0.817799,4.56888 0,2.7327 0.03614,2.91834 0.933707,4.7978 2.603726,5.45198 8.743442,8.00955 14.246059,5.93434 z m -7.670693,-7.64721 c -1.548964,-1.31408 -1.694478,-1.52365 -1.694478,-2.4404 0,-0.74338 0.148614,-1.10696 0.574357,-1.40516 0.785171,-0.54996 1.809948,-0.50476 2.597277,0.11455 0.361392,0.28428 0.738263,0.51686 0.837505,0.51686 0.09924,0 1.243814,-0.97183 2.543506,-2.1596 1.299685,-1.18779 2.617112,-2.29258 2.927611,-2.45509 1.161971,-0.60818 2.895762,0.82054 2.570141,2.11791 -0.1412,0.5626 -5.422067,5.71804 -6.874765,6.71149 -1.037843,0.70975 -1.68407,0.52401 -3.481154,-1.00056 z m 82.42245,10.74088 c -7.2e-4,-2.71257 -0.37404,-3.7189 -1.76238,-4.75388 -0.72856,-0.54312 -0.76414,-0.54396 -26.16568,-0.61219 l -25.43612,-0.0683 v 3.83706 c 0,2.11037 0.078,3.91511 0.17349,4.01054 0.0954,0.0954 12.10256,0.14387 26.68253,0.10768 l 26.50904,-0.0658 z m -12.53556,-11.42022 c -0.42491,-1.16429 -0.77257,-2.15349 -0.77257,-2.19823 0,-0.0448 -8.98355,-0.0516 -19.96343,-0.0152 l -19.96344,0.0663 -0.075,2.13202 -0.0751,2.13203 h 20.81105 20.81106 z m 34.32593,-6.16674 c 1.90339,-0.4082 3.66547,-2.38521 3.66547,-4.11256 v -0.52516 H 146.88833 107.4783 v 2.28277 c 0,1.25553 0.0776,2.36029 0.17228,2.45505 0.30095,0.30095 73.56836,0.20315 74.98232,-0.1001 z m 3.6598,-45.533697 c -0.006,-35.438771 -0.0261,-37.063734 -0.48275,-38.053298 -0.55195,-1.195901 -1.40117,-2.045866 -2.4357,-2.437836 -0.5071,-0.192135 -17.33974,-0.274354 -55.56168,-0.27139 l -54.834194,0.0043 -1.032971,0.585019 c -0.630343,0.356991 -1.285084,1.035253 -1.67977,1.740126 l -0.646799,1.15511 -0.06964,24.615116 -0.06964,24.615121 h 2.072484 2.072485 l 7.14e-4,-22.935351 c 7.14e-4,-22.548395 0.0098,-22.949781 0.522513,-23.790787 1.018171,-1.669972 -0.146364,-1.599608 26.473798,-1.599608 23.82659,0 24.17853,0.0073 24.68802,0.516854 0.69653,0.696533 0.68271,2.095618 -0.0271,2.738031 -0.52539,0.475521 -1.35321,0.494635 -24.29208,0.560879 l -23.748161,0.06857 v 22.220659 22.220695 h 13.356588 c 12.980933,0 13.387673,0.01507 14.462133,0.535193 0.64897,0.314164 1.3497,0.927841 1.69676,1.485956 0.56907,0.915155 0.59603,1.216884 0.72042,8.057488 l 0.12921,7.10672 h 35.4044 35.40444 l 0.0657,-30.817352 0.0657,-30.817352 H 155.0646 c -23.36581,0 -23.4864,-0.0028 -24.16391,-0.535607 -0.8532,-0.671135 -0.93357,-2.054434 -0.16406,-2.823935 0.50951,-0.509525 0.86141,-0.516852 24.82176,-0.516852 27.08555,0 25.36363,-0.117914 26.34414,1.80401 0.5119,1.003427 0.51938,1.476292 0.51938,32.840393 0,29.032825 -0.0374,31.901035 -0.42626,32.720585 -0.90753,1.91248 2.37075,1.74944 -38.06786,1.8933 l -36.32033,0.12921 -0.0754,2.0028 -0.0755,2.00281 h 39.4209 39.4209 l -0.006,-37.019585 z m -62.5141,19.682467 c -4.77227,-0.9363 -9.76365,-3.97198 -12.80267,-7.78637 -1.62189,-2.035684 -3.51025,-5.727674 -4.13494,-8.084308 -0.57942,-2.185891 -0.79196,-6.612822 -0.42236,-8.797399 1.88154,-11.121133 11.48756,-18.967441 22.50907,-18.385663 3.39935,0.179436 5.43105,0.693293 8.44281,2.135363 5.42268,2.596427 9.25043,6.949565 11.23093,12.772439 0.73883,2.172212 0.8476,2.856998 0.94404,5.943816 0.0915,2.928419 0.0202,3.862311 -0.44406,5.814588 -1.90317,8.003736 -8.12212,14.240264 -16.10973,16.155244 -2.27719,0.54594 -7.00664,0.66519 -9.21309,0.23229 z m 7.06784,-3.73755 c 3.40743,-0.432423 7.74162,-2.743507 10.20982,-5.444112 8.14899,-8.916292 5.50573,-23.062401 -5.28026,-28.258689 -5.12795,-2.470455 -10.63785,-2.436005 -15.77384,0.09864 -8.82086,4.353146 -12.42396,14.913015 -8.11963,23.796872 2.62256,5.412817 7.93103,9.196214 13.94405,9.938029 1.66372,0.20525 2.55518,0.18203 5.01986,-0.13074 z m -5.14907,-12.512199 c -0.91393,-0.383885 -4.28878,-3.399554 -4.538,-4.055039 -0.17143,-0.450914 -0.13211,-0.845106 0.13608,-1.363691 0.72673,-1.405364 1.83322,-1.400406 3.66971,0.01642 l 1.38294,1.066935 2.90496,-2.672048 c 1.59774,-1.469621 3.45238,-3.170812 4.12143,-3.780418 1.32528,-1.207521 2.24666,-1.407792 3.24851,-0.706064 0.42384,0.296871 0.57435,0.66215 0.57435,1.393935 0,0.953527 -0.17639,1.154605 -4.58706,5.22911 -5.82318,5.379351 -5.77803,5.347537 -6.91292,4.870845 z"
       id="path1035" />
  </g>
</svg>
